<svg id="Layer_1" data-name="Layer 1" xmlns="http://www.w3.org/2000/svg" viewBox="0 0 2789.19 1565.7"><defs><style>.cls-1{fill:#19181b;stroke:#19181b;stroke-miterlimit:10;}.cls-2{fill:#1b191c;}</style></defs><rect class="cls-1" x="0.5" y="0.5" width="2788.19" height="1564.7"/><polygon class="cls-2" points="11.69 0.5 0.5 11.69 0.5 3.75 3.75 0.5 11.69 0.5"/><polygon class="cls-2" points="27.76 0.5 0.5 27.76 0.5 19.79 19.79 0.5 27.76 0.5"/><polygon class="cls-2" points="45.81 0.5 0.5 45.81 0.5 37.83 37.83 0.5 45.81 0.5"/><polygon class="cls-2" points="63.85 0.5 0.5 63.85 0.5 55.88 55.88 0.5 63.85 0.5"/><polygon class="cls-2" points="81.9 0.5 0.5 81.9 0.5 73.92 73.92 0.5 81.9 0.5"/><polygon class="cls-2" points="99.95 0.5 0.5 99.95 0.5 91.97 91.97 0.5 99.95 0.5"/><polygon class="cls-2" points="117.99 0.5 0.5 117.99 0.5 110.05 110.05 0.5 117.99 0.5"/><polygon class="cls-2" points="136.04 0.5 0.5 136.04 0.5 128.1 128.1 0.5 136.04 0.5"/><polygon class="cls-2" points="154.08 0.5 0.5 154.08 0.5 146.14 146.14 0.5 154.08 0.5"/><polygon class="cls-2" points="172.13 0.5 0.5 172.13 0.5 164.19 164.19 0.5 172.13 0.5"/><polygon class="cls-2" points="190.19 0.5 0.5 190.19 0.5 182.24 182.24 0.5 190.19 0.5"/><polygon class="cls-2" points="208.26 0.5 0.5 208.26 0.5 200.28 200.28 0.5 208.26 0.5"/><polygon class="cls-2" points="226.31 0.5 0.5 226.31 0.5 218.33 218.33 0.5 226.31 0.5"/><polygon class="cls-2" points="244.35 0.5 0.5 244.35 0.5 236.37 236.37 0.5 244.35 0.5"/><polygon class="cls-2" points="262.4 0.5 0.5 262.4 0.5 254.42 254.42 0.5 262.4 0.5"/><polygon class="cls-2" points="280.44 0.5 0.5 280.44 0.5 272.46 272.46 0.5 280.44 0.5"/><polygon class="cls-2" points="298.49 0.5 0.5 298.49 0.5 290.51 290.51 0.5 298.49 0.5"/><polygon class="cls-2" points="316.53 0.5 0.5 316.53 0.5 308.56 308.56 0.5 316.53 0.5"/><polygon class="cls-2" points="334.58 0.5 0.5 334.58 0.5 326.6 326.6 0.5 334.58 0.5"/><polygon class="cls-2" points="352.63 0.5 0.5 352.63 0.5 344.65 344.65 0.5 352.63 0.5"/><polygon class="cls-2" points="370.67 0.5 0.5 370.67 0.5 362.73 362.73 0.5 370.67 0.5"/><polygon class="cls-2" points="388.72 0.5 0.5 388.72 0.5 380.78 380.78 0.5 388.72 0.5"/><polygon class="cls-2" points="406.76 0.5 0.5 406.76 0.5 398.82 398.82 0.5 406.76 0.5"/><polygon class="cls-2" points="424.81 0.5 0.5 424.81 0.5 416.87 416.87 0.5 424.81 0.5"/><polygon class="cls-2" points="442.87 0.5 0.5 442.87 0.5 434.92 434.92 0.5 442.87 0.5"/><polygon class="cls-2" points="460.94 0.5 0.5 460.94 0.5 452.96 452.96 0.5 460.94 0.5"/><polygon class="cls-2" points="478.99 0.5 0.5 478.99 0.5 471.01 471.01 0.5 478.99 0.5"/><polygon class="cls-2" points="497.03 0.5 0.5 497.03 0.5 489.05 489.05 0.5 497.03 0.5"/><polygon class="cls-2" points="515.08 0.5 0.5 515.08 0.5 507.1 507.1 0.5 515.08 0.5"/><polygon class="cls-2" points="533.12 0.5 0.5 533.12 0.5 525.14 525.14 0.5 533.12 0.5"/><polygon class="cls-2" points="551.17 0.5 0.5 551.17 0.5 543.19 543.19 0.5 551.17 0.5"/><polygon class="cls-2" points="569.21 0.5 0.5 569.21 0.5 561.24 561.24 0.5 569.21 0.5"/><polygon class="cls-2" points="587.26 0.5 0.5 587.26 0.5 579.28 579.28 0.5 587.26 0.5"/><polygon class="cls-2" points="605.3 0.5 0.5 605.3 0.5 597.33 597.33 0.5 605.3 0.5"/><polygon class="cls-2" points="623.35 0.5 0.5 623.35 0.5 615.41 615.41 0.5 623.35 0.5"/><polygon class="cls-2" points="641.4 0.5 0.5 641.4 0.5 633.46 633.46 0.5 641.4 0.5"/><polygon class="cls-2" points="659.44 0.5 0.5 659.44 0.5 651.5 651.5 0.5 659.44 0.5"/><polygon class="cls-2" points="677.49 0.5 0.5 677.49 0.5 669.55 669.55 0.5 677.49 0.5"/><polygon class="cls-2" points="695.55 0.5 0.5 695.55 0.5 687.6 687.6 0.5 695.55 0.5"/><polygon class="cls-2" points="713.62 0.5 0.5 713.62 0.5 705.64 705.64 0.5 713.62 0.5"/><polygon class="cls-2" points="731.66 0.5 0.5 731.66 0.5 723.69 723.69 0.5 731.66 0.5"/><polygon class="cls-2" points="749.71 0.5 0.5 749.71 0.5 741.73 741.73 0.5 749.71 0.5"/><polygon class="cls-2" points="767.76 0.5 0.5 767.76 0.5 759.78 759.78 0.5 767.76 0.5"/><polygon class="cls-2" points="785.8 0.5 0.5 785.8 0.5 777.83 777.83 0.5 785.8 0.5"/><polygon class="cls-2" points="803.85 0.5 0.5 803.85 0.5 795.87 795.87 0.5 803.85 0.5"/><polygon class="cls-2" points="821.89 0.5 0.5 821.89 0.5 813.92 813.92 0.5 821.89 0.5"/><polygon class="cls-2" points="839.94 0.5 0.5 839.94 0.5 831.96 831.96 0.5 839.94 0.5"/><polygon class="cls-2" points="857.99 0.5 0.5 857.99 0.5 850.01 850.01 0.5 857.99 0.5"/><polygon class="cls-2" points="876.03 0.5 0.5 876.03 0.5 868.09 868.09 0.5 876.03 0.5"/><polygon class="cls-2" points="894.08 0.5 0.5 894.08 0.5 886.14 886.14 0.5 894.08 0.5"/><polygon class="cls-2" points="912.12 0.5 0.5 912.12 0.5 904.18 904.18 0.5 912.12 0.5"/><polygon class="cls-2" points="930.17 0.5 0.5 930.17 0.5 922.23 922.23 0.5 930.17 0.5"/><polygon class="cls-2" points="948.23 0.5 0.5 948.23 0.5 940.28 940.28 0.5 948.23 0.5"/><polygon class="cls-2" points="966.3 0.5 0.5 966.3 0.5 958.32 958.32 0.5 966.3 0.5"/><polygon class="cls-2" points="984.35 0.5 0.5 984.35 0.5 976.37 976.37 0.5 984.35 0.5"/><polygon class="cls-2" points="1002.39 0.5 0.5 1002.39 0.5 994.41 994.41 0.5 1002.39 0.5"/><polygon class="cls-2" points="1020.44 0.5 0.5 1020.44 0.5 1012.46 1012.46 0.5 1020.44 0.5"/><polygon class="cls-2" points="1038.48 0.5 0.5 1038.48 0.5 1030.51 1030.51 0.5 1038.48 0.5"/><polygon class="cls-2" points="1056.53 0.5 0.5 1056.53 0.5 1048.55 1048.55 0.5 1056.53 0.5"/><polygon class="cls-2" points="1074.57 0.5 0.5 1074.57 0.5 1066.6 1066.6 0.5 1074.57 0.5"/><polygon class="cls-2" points="1092.62 0.5 0.5 1092.62 0.5 1084.64 1084.64 0.5 1092.62 0.5"/><polygon class="cls-2" points="1110.66 0.5 0.5 1110.66 0.5 1102.69 1102.69 0.5 1110.66 0.5"/><polygon class="cls-2" points="1128.71 0.5 0.5 1128.71 0.5 1120.77 1120.77 0.5 1128.71 0.5"/><polygon class="cls-2" points="1146.76 0.5 0.5 1146.76 0.5 1138.82 1138.82 0.5 1146.76 0.5"/><polygon class="cls-2" points="1164.8 0.5 0.5 1164.8 0.5 1156.86 1156.86 0.5 1164.8 0.5"/><polygon class="cls-2" points="1182.85 0.5 0.5 1182.85 0.5 1174.91 1174.91 0.5 1182.85 0.5"/><polygon class="cls-2" points="1200.91 0.5 0.5 1200.91 0.5 1192.96 1192.96 0.5 1200.91 0.5"/><polygon class="cls-2" points="1218.98 0.5 0.5 1218.98 0.5 1211 1211 0.5 1218.98 0.5"/><polygon class="cls-2" points="1237.03 0.5 0.5 1237.03 0.5 1229.05 1229.05 0.5 1237.03 0.5"/><polygon class="cls-2" points="1255.07 0.5 0.5 1255.07 0.5 1247.09 1247.09 0.5 1255.07 0.5"/><polygon class="cls-2" points="1273.12 0.5 0.5 1273.12 0.5 1265.14 1265.14 0.5 1273.12 0.5"/><polygon class="cls-2" points="1291.16 0.5 0.5 1291.16 0.5 1283.18 1283.18 0.5 1291.16 0.5"/><polygon class="cls-2" points="1309.21 0.5 0.5 1309.21 0.5 1301.23 1301.23 0.5 1309.21 0.5"/><polygon class="cls-2" points="1327.25 0.5 0.5 1327.25 0.5 1319.28 1319.28 0.5 1327.25 0.5"/><polygon class="cls-2" points="1345.3 0.5 0.5 1345.3 0.5 1337.32 1337.32 0.5 1345.3 0.5"/><polygon class="cls-2" points="1363.35 0.5 0.5 1363.35 0.5 1355.37 1355.37 0.5 1363.35 0.5"/><polygon class="cls-2" points="1381.39 0.5 0.5 1381.39 0.5 1373.45 1373.45 0.5 1381.39 0.5"/><polygon class="cls-2" points="1399.44 0.5 0.5 1399.44 0.5 1391.5 1391.5 0.5 1399.44 0.5"/><polygon class="cls-2" points="1417.48 0.5 0.5 1417.48 0.5 1409.54 1409.54 0.5 1417.48 0.5"/><polygon class="cls-2" points="1435.53 0.5 0.5 1435.53 0.5 1427.59 1427.59 0.5 1435.53 0.5"/><polygon class="cls-2" points="1453.59 0.5 0.5 1453.59 0.5 1445.64 1445.64 0.5 1453.59 0.5"/><polygon class="cls-2" points="1471.66 0.5 0.5 1471.66 0.5 1463.68 1463.68 0.5 1471.66 0.5"/><polygon class="cls-2" points="1489.7 0.5 0.5 1489.7 0.5 1481.73 1481.73 0.5 1489.7 0.5"/><polygon class="cls-2" points="1507.75 0.5 0.5 1507.75 0.5 1499.77 1499.77 0.5 1507.75 0.5"/><polygon class="cls-2" points="1525.8 0.5 0.5 1525.8 0.5 1517.82 1517.82 0.5 1525.8 0.5"/><polygon class="cls-2" points="1543.84 0.5 0.5 1543.84 0.5 1535.87 1535.87 0.5 1543.84 0.5"/><polygon class="cls-2" points="1561.89 0.5 0.5 1561.89 0.5 1553.91 1553.91 0.5 1561.89 0.5"/><polygon class="cls-2" points="1579.93 0.5 15.23 1565.2 7.26 1565.2 1571.96 0.5 1579.93 0.5"/><polygon class="cls-2" points="1597.98 0.5 33.28 1565.2 25.3 1565.2 1590 0.5 1597.98 0.5"/><polygon class="cls-2" points="1616.03 0.5 51.33 1565.2 43.35 1565.2 1608.05 0.5 1616.03 0.5"/><polygon class="cls-2" points="1634.07 0.5 69.37 1565.2 61.43 1565.2 1626.13 0.5 1634.07 0.5"/><polygon class="cls-2" points="1652.12 0.5 87.42 1565.2 79.48 1565.2 1644.18 0.5 1652.12 0.5"/><polygon class="cls-2" points="1670.16 0.5 105.46 1565.2 97.53 1565.2 1662.22 0.5 1670.16 0.5"/><polygon class="cls-2" points="1688.21 0.5 123.51 1565.2 115.57 1565.2 1680.27 0.5 1688.21 0.5"/><polygon class="cls-2" points="1706.27 0.5 141.57 1565.2 133.62 1565.2 1698.32 0.5 1706.27 0.5"/><polygon class="cls-2" points="1724.34 0.5 159.64 1565.2 151.66 1565.2 1716.36 0.5 1724.34 0.5"/><polygon class="cls-2" points="1742.38 0.5 177.69 1565.2 169.71 1565.2 1734.41 0.5 1742.38 0.5"/><polygon class="cls-2" points="1760.43 0.5 195.73 1565.2 187.75 1565.2 1752.45 0.5 1760.43 0.5"/><polygon class="cls-2" points="1778.48 0.5 213.78 1565.2 205.8 1565.2 1770.5 0.5 1778.48 0.5"/><polygon class="cls-2" points="1796.52 0.5 231.82 1565.2 223.85 1565.2 1788.55 0.5 1796.52 0.5"/><polygon class="cls-2" points="1814.57 0.5 249.87 1565.2 241.89 1565.2 1806.59 0.5 1814.57 0.5"/><polygon class="cls-2" points="1832.61 0.5 267.92 1565.2 259.94 1565.2 1824.64 0.5 1832.61 0.5"/><polygon class="cls-2" points="1850.66 0.5 285.96 1565.2 277.98 1565.2 1842.68 0.5 1850.66 0.5"/><polygon class="cls-2" points="1868.7 0.5 304.01 1565.2 296.03 1565.2 1860.73 0.5 1868.7 0.5"/><polygon class="cls-2" points="1886.75 0.5 322.05 1565.2 314.11 1565.2 1878.81 0.5 1886.75 0.5"/><polygon class="cls-2" points="1904.8 0.5 340.1 1565.2 332.16 1565.2 1896.86 0.5 1904.8 0.5"/><polygon class="cls-2" points="1922.84 0.5 358.14 1565.2 350.2 1565.2 1914.9 0.5 1922.84 0.5"/><polygon class="cls-2" points="1940.89 0.5 376.19 1565.2 368.25 1565.2 1932.95 0.5 1940.89 0.5"/><polygon class="cls-2" points="1958.95 0.5 394.25 1565.2 386.3 1565.2 1951 0.5 1958.95 0.5"/><polygon class="cls-2" points="1977.02 0.5 412.32 1565.2 404.34 1565.2 1969.04 0.5 1977.02 0.5"/><polygon class="cls-2" points="1995.07 0.5 430.37 1565.2 422.39 1565.2 1987.09 0.5 1995.07 0.5"/><polygon class="cls-2" points="2013.11 0.5 448.41 1565.2 440.43 1565.2 2005.13 0.5 2013.11 0.5"/><polygon class="cls-2" points="2031.16 0.5 466.46 1565.2 458.48 1565.2 2023.18 0.5 2031.16 0.5"/><polygon class="cls-2" points="2049.2 0.5 484.5 1565.2 476.53 1565.2 2041.22 0.5 2049.2 0.5"/><polygon class="cls-2" points="2067.25 0.5 502.55 1565.2 494.57 1565.2 2059.27 0.5 2067.25 0.5"/><polygon class="cls-2" points="2085.29 0.5 520.6 1565.2 512.62 1565.2 2077.32 0.5 2085.29 0.5"/><polygon class="cls-2" points="2103.34 0.5 538.64 1565.2 530.66 1565.2 2095.36 0.5 2103.34 0.5"/><polygon class="cls-2" points="2121.39 0.5 556.69 1565.2 548.71 1565.2 2113.41 0.5 2121.39 0.5"/><polygon class="cls-2" points="2139.43 0.5 574.73 1565.2 566.79 1565.2 2131.49 0.5 2139.43 0.5"/><polygon class="cls-2" points="2157.48 0.5 592.78 1565.2 584.84 1565.2 2149.54 0.5 2157.48 0.5"/><polygon class="cls-2" points="2175.52 0.5 610.82 1565.2 602.88 1565.2 2167.58 0.5 2175.52 0.5"/><polygon class="cls-2" points="2193.57 0.5 628.87 1565.2 620.93 1565.2 2185.63 0.5 2193.57 0.5"/><polygon class="cls-2" points="2211.63 0.5 646.93 1565.2 638.98 1565.2 2203.68 0.5 2211.63 0.5"/><polygon class="cls-2" points="2229.7 0.5 665 1565.2 657.02 1565.2 2221.72 0.5 2229.7 0.5"/><polygon class="cls-2" points="2247.74 0.5 683.05 1565.2 675.07 1565.2 2239.77 0.5 2247.74 0.5"/><polygon class="cls-2" points="2265.79 0.5 701.09 1565.2 693.11 1565.2 2257.81 0.5 2265.79 0.5"/><polygon class="cls-2" points="2283.84 0.5 719.14 1565.2 711.16 1565.2 2275.86 0.5 2283.84 0.5"/><polygon class="cls-2" points="2301.88 0.5 737.18 1565.2 729.21 1565.2 2293.91 0.5 2301.88 0.5"/><polygon class="cls-2" points="2319.93 0.5 755.23 1565.2 747.25 1565.2 2311.95 0.5 2319.93 0.5"/><polygon class="cls-2" points="2337.97 0.5 773.27 1565.2 765.3 1565.2 2330 0.5 2337.97 0.5"/><polygon class="cls-2" points="2356.02 0.5 791.32 1565.2 783.34 1565.2 2348.04 0.5 2356.02 0.5"/><polygon class="cls-2" points="2374.07 0.5 809.37 1565.2 801.39 1565.2 2366.09 0.5 2374.07 0.5"/><polygon class="cls-2" points="2392.11 0.5 827.41 1565.2 819.47 1565.2 2384.17 0.5 2392.11 0.5"/><polygon class="cls-2" points="2410.16 0.5 845.46 1565.2 837.52 1565.2 2402.22 0.5 2410.16 0.5"/><polygon class="cls-2" points="2428.2 0.5 863.5 1565.2 855.57 1565.2 2420.26 0.5 2428.2 0.5"/><polygon class="cls-2" points="2446.25 0.5 881.55 1565.2 873.61 1565.2 2438.31 0.5 2446.25 0.5"/><polygon class="cls-2" points="2464.31 0.5 899.62 1565.2 891.66 1565.2 2456.36 0.5 2464.31 0.5"/><polygon class="cls-2" points="2482.38 0.5 917.68 1565.2 909.7 1565.2 2474.4 0.5 2482.38 0.5"/><polygon class="cls-2" points="2500.42 0.5 935.73 1565.2 927.75 1565.2 2492.45 0.5 2500.42 0.5"/><polygon class="cls-2" points="2518.47 0.5 953.77 1565.2 945.79 1565.2 2510.49 0.5 2518.47 0.5"/><polygon class="cls-2" points="2536.52 0.5 971.82 1565.2 963.84 1565.2 2528.54 0.5 2536.52 0.5"/><polygon class="cls-2" points="2554.56 0.5 989.86 1565.2 981.89 1565.2 2546.59 0.5 2554.56 0.5"/><polygon class="cls-2" points="2572.61 0.5 1007.91 1565.2 999.93 1565.2 2564.63 0.5 2572.61 0.5"/><polygon class="cls-2" points="2590.65 0.5 1025.95 1565.2 1017.98 1565.2 2582.68 0.5 2590.65 0.5"/><polygon class="cls-2" points="2608.7 0.5 1044 1565.2 1036.02 1565.2 2600.72 0.5 2608.7 0.5"/><polygon class="cls-2" points="2626.74 0.5 1062.05 1565.2 1054.07 1565.2 2618.77 0.5 2626.74 0.5"/><polygon class="cls-2" points="2644.79 0.5 1080.09 1565.2 1072.15 1565.2 2636.85 0.5 2644.79 0.5"/><polygon class="cls-2" points="2662.84 0.5 1098.14 1565.2 1090.2 1565.2 2654.9 0.5 2662.84 0.5"/><polygon class="cls-2" points="2680.88 0.5 1116.18 1565.2 1108.24 1565.2 2672.94 0.5 2680.88 0.5"/><polygon class="cls-2" points="2698.93 0.5 1134.23 1565.2 1126.29 1565.2 2690.99 0.5 2698.93 0.5"/><polygon class="cls-2" points="2716.99 0.5 1152.3 1565.2 1144.34 1565.2 2709.03 0.5 2716.99 0.5"/><polygon class="cls-2" points="2735.06 0.5 1170.36 1565.2 1162.38 1565.2 2727.08 0.5 2735.06 0.5"/><polygon class="cls-2" points="2753.1 0.5 1188.41 1565.2 1180.43 1565.2 2745.13 0.5 2753.1 0.5"/><polygon class="cls-2" points="2771.15 0.5 1206.45 1565.2 1198.47 1565.2 2763.17 0.5 2771.15 0.5"/><polygon class="cls-2" points="2788.69 0.5 2788.69 1 1224.5 1565.2 1216.52 1565.2 2781.22 0.5 2788.69 0.5"/><polygon class="cls-2" points="2788.69 11.07 2788.69 19.05 1242.54 1565.2 1234.57 1565.2 2788.69 11.07"/><polygon class="cls-2" points="2788.69 29.12 2788.69 37.09 1260.59 1565.2 1252.61 1565.2 2788.69 29.12"/><polygon class="cls-2" points="2788.69 47.16 2788.69 55.14 1278.63 1565.2 1270.66 1565.2 2788.69 47.16"/><polygon class="cls-2" points="2788.69 65.21 2788.69 73.19 1296.68 1565.2 1288.7 1565.2 2788.69 65.21"/><polygon class="cls-2" points="2788.69 83.25 2788.69 91.23 1314.73 1565.2 1306.75 1565.2 2788.69 83.25"/><polygon class="cls-2" points="2788.69 101.34 2788.69 109.28 1332.77 1565.2 1324.83 1565.2 2788.69 101.34"/><polygon class="cls-2" points="2788.69 119.39 2788.69 127.32 1350.82 1565.2 1342.88 1565.2 2788.69 119.39"/><polygon class="cls-2" points="2788.69 137.43 2788.69 145.37 1368.86 1565.2 1360.92 1565.2 2788.69 137.43"/><polygon class="cls-2" points="2788.69 155.48 2788.69 163.41 1386.91 1565.2 1378.97 1565.2 2788.69 155.48"/><polygon class="cls-2" points="2788.69 173.52 2788.69 181.48 1404.97 1565.2 1397.02 1565.2 2788.69 173.52"/><polygon class="cls-2" points="2788.69 191.57 2788.69 199.55 1423.04 1565.2 1415.06 1565.2 2788.69 191.57"/><polygon class="cls-2" points="2788.69 209.61 2788.69 217.59 1441.09 1565.2 1433.11 1565.2 2788.69 209.61"/><polygon class="cls-2" points="2788.69 227.66 2788.69 235.64 1459.13 1565.2 1451.15 1565.2 2788.69 227.66"/><polygon class="cls-2" points="2788.69 245.71 2788.69 253.68 1477.18 1565.2 1469.2 1565.2 2788.69 245.71"/><polygon class="cls-2" points="2788.69 263.75 2788.69 271.73 1495.22 1565.2 1487.25 1565.2 2788.69 263.75"/><polygon class="cls-2" points="2788.69 281.8 2788.69 289.77 1513.27 1565.2 1505.29 1565.2 2788.69 281.8"/><polygon class="cls-2" points="2788.69 299.84 2788.69 307.82 1531.32 1565.2 1523.34 1565.2 2788.69 299.84"/><polygon class="cls-2" points="2788.69 317.89 2788.69 325.87 1549.36 1565.2 1541.38 1565.2 2788.69 317.89"/><polygon class="cls-2" points="2788.69 335.94 2788.69 343.91 1567.41 1565.2 1559.43 1565.2 2788.69 335.94"/><polygon class="cls-2" points="2788.69 354.02 2788.69 361.96 1585.45 1565.2 1577.51 1565.2 2788.69 354.02"/><polygon class="cls-2" points="2788.69 372.06 2788.69 380 1603.5 1565.2 1595.56 1565.2 2788.69 372.06"/><polygon class="cls-2" points="2788.69 390.11 2788.69 398.05 1621.54 1565.2 1613.61 1565.2 2788.69 390.11"/><polygon class="cls-2" points="2788.69 408.16 2788.69 416.1 1639.59 1565.2 1631.65 1565.2 2788.69 408.16"/><polygon class="cls-2" points="2788.69 426.2 2788.69 434.16 1657.65 1565.2 1649.7 1565.2 2788.69 426.2"/><polygon class="cls-2" points="2788.69 444.25 2788.69 452.23 1675.72 1565.2 1667.74 1565.2 2788.69 444.25"/><polygon class="cls-2" points="2788.69 462.29 2788.69 470.27 1693.77 1565.2 1685.79 1565.2 2788.69 462.29"/><polygon class="cls-2" points="2788.69 480.34 2788.69 488.32 1711.81 1565.2 1703.83 1565.2 2788.69 480.34"/><polygon class="cls-2" points="2788.69 498.39 2788.69 506.36 1729.86 1565.2 1721.88 1565.2 2788.69 498.39"/><polygon class="cls-2" points="2788.69 516.43 2788.69 524.41 1747.9 1565.2 1739.93 1565.2 2788.69 516.43"/><polygon class="cls-2" points="2788.69 534.48 2788.69 542.46 1765.95 1565.2 1757.97 1565.2 2788.69 534.48"/><polygon class="cls-2" points="2788.69 552.52 2788.69 560.5 1783.99 1565.2 1776.02 1565.2 2788.69 552.52"/><polygon class="cls-2" points="2788.69 570.57 2788.69 578.55 1802.04 1565.2 1794.06 1565.2 2788.69 570.57"/><polygon class="cls-2" points="2788.69 588.62 2788.69 596.59 1820.09 1565.2 1812.11 1565.2 2788.69 588.62"/><polygon class="cls-2" points="2788.69 606.7 2788.69 614.64 1838.13 1565.2 1830.19 1565.2 2788.69 606.7"/><polygon class="cls-2" points="2788.69 624.75 2788.69 632.68 1856.18 1565.2 1848.24 1565.2 2788.69 624.75"/><polygon class="cls-2" points="2788.69 642.79 2788.69 650.73 1874.22 1565.2 1866.29 1565.2 2788.69 642.79"/><polygon class="cls-2" points="2788.69 660.84 2788.69 668.77 1892.27 1565.2 1884.33 1565.2 2788.69 660.84"/><polygon class="cls-2" points="2788.69 678.88 2788.69 686.84 1910.34 1565.2 1902.38 1565.2 2788.69 678.88"/><polygon class="cls-2" points="2788.69 696.93 2788.69 704.91 1928.4 1565.2 1920.42 1565.2 2788.69 696.93"/><polygon class="cls-2" points="2788.69 714.97 2788.69 722.95 1946.45 1565.2 1938.47 1565.2 2788.69 714.97"/><polygon class="cls-2" points="2788.69 733.02 2788.69 741 1964.49 1565.2 1956.51 1565.2 2788.69 733.02"/><polygon class="cls-2" points="2788.69 751.07 2788.69 759.04 1982.54 1565.2 1974.56 1565.2 2788.69 751.07"/><polygon class="cls-2" points="2788.69 769.11 2788.69 777.09 2000.58 1565.2 1992.61 1565.2 2788.69 769.11"/><polygon class="cls-2" points="2788.69 787.16 2788.69 795.13 2018.63 1565.2 2010.65 1565.2 2788.69 787.16"/><polygon class="cls-2" points="2788.69 805.2 2788.69 813.18 2036.67 1565.2 2028.7 1565.2 2788.69 805.2"/><polygon class="cls-2" points="2788.69 823.25 2788.69 831.23 2054.72 1565.2 2046.74 1565.2 2788.69 823.25"/><polygon class="cls-2" points="2788.69 841.29 2788.69 849.27 2072.77 1565.2 2064.79 1565.2 2788.69 841.29"/><polygon class="cls-2" points="2788.69 859.38 2788.69 867.32 2090.81 1565.2 2082.87 1565.2 2788.69 859.38"/><polygon class="cls-2" points="2788.69 877.42 2788.69 885.36 2108.86 1565.2 2100.92 1565.2 2788.69 877.42"/><polygon class="cls-2" points="2788.69 895.47 2788.69 903.41 2126.9 1565.2 2118.97 1565.2 2788.69 895.47"/><polygon class="cls-2" points="2788.69 913.52 2788.69 921.46 2144.95 1565.2 2137.01 1565.2 2788.69 913.52"/><polygon class="cls-2" points="2788.69 931.56 2788.69 939.52 2163.01 1565.2 2155.06 1565.2 2788.69 931.56"/><polygon class="cls-2" points="2788.69 949.61 2788.69 957.59 2181.08 1565.2 2173.1 1565.2 2788.69 949.61"/><polygon class="cls-2" points="2788.69 967.65 2788.69 975.63 2199.13 1565.2 2191.15 1565.2 2788.69 967.65"/><polygon class="cls-2" points="2788.69 985.7 2788.69 993.68 2217.17 1565.2 2209.19 1565.2 2788.69 985.7"/><polygon class="cls-2" points="2788.69 1003.75 2788.69 1011.72 2235.22 1565.2 2227.24 1565.2 2788.69 1003.75"/><polygon class="cls-2" points="2788.69 1021.79 2788.69 1029.77 2253.26 1565.2 2245.29 1565.2 2788.69 1021.79"/><polygon class="cls-2" points="2788.69 1039.84 2788.69 1047.82 2271.31 1565.2 2263.33 1565.2 2788.69 1039.84"/><polygon class="cls-2" points="2788.69 1057.88 2788.69 1065.86 2289.36 1565.2 2281.38 1565.2 2788.69 1057.88"/><polygon class="cls-2" points="2788.69 1075.93 2788.69 1083.91 2307.4 1565.2 2299.42 1565.2 2788.69 1075.93"/><polygon class="cls-2" points="2788.69 1093.97 2788.69 1101.95 2325.45 1565.2 2317.47 1565.2 2788.69 1093.97"/><polygon class="cls-2" points="2788.69 1112.06 2788.69 1120 2343.49 1565.2 2335.55 1565.2 2788.69 1112.06"/><polygon class="cls-2" points="2788.69 1130.11 2788.69 1138.04 2361.54 1565.2 2353.6 1565.2 2788.69 1130.11"/><polygon class="cls-2" points="2788.69 1148.15 2788.69 1156.09 2379.58 1565.2 2371.64 1565.2 2788.69 1148.15"/><polygon class="cls-2" points="2788.69 1166.2 2788.69 1174.13 2397.63 1565.2 2389.69 1565.2 2788.69 1166.2"/><polygon class="cls-2" points="2788.69 1184.24 2788.69 1192.2 2415.69 1565.2 2407.74 1565.2 2788.69 1184.24"/><polygon class="cls-2" points="2788.69 1202.29 2788.69 1210.27 2433.76 1565.2 2425.78 1565.2 2788.69 1202.29"/><polygon class="cls-2" points="2788.69 1220.33 2788.69 1228.31 2451.81 1565.2 2443.83 1565.2 2788.69 1220.33"/><polygon class="cls-2" points="2788.69 1238.38 2788.69 1246.36 2469.85 1565.2 2461.87 1565.2 2788.69 1238.38"/><polygon class="cls-2" points="2788.69 1256.43 2788.69 1264.4 2487.9 1565.2 2479.92 1565.2 2788.69 1256.43"/><polygon class="cls-2" points="2788.69 1274.47 2788.69 1282.45 2505.94 1565.2 2497.97 1565.2 2788.69 1274.47"/><polygon class="cls-2" points="2788.69 1292.52 2788.69 1300.49 2523.99 1565.2 2516.01 1565.2 2788.69 1292.52"/><polygon class="cls-2" points="2788.69 1310.56 2788.69 1318.54 2542.03 1565.2 2534.06 1565.2 2788.69 1310.56"/><polygon class="cls-2" points="2788.69 1328.61 2788.69 1336.59 2560.08 1565.2 2552.1 1565.2 2788.69 1328.61"/><polygon class="cls-2" points="2788.69 1346.65 2788.69 1354.63 2578.13 1565.2 2570.15 1565.2 2788.69 1346.65"/><polygon class="cls-2" points="2788.69 1364.74 2788.69 1372.68 2596.17 1565.2 2588.23 1565.2 2788.69 1364.74"/><polygon class="cls-2" points="2788.69 1382.79 2788.69 1390.72 2614.22 1565.2 2606.28 1565.2 2788.69 1382.79"/><polygon class="cls-2" points="2788.69 1400.83 2788.69 1408.77 2632.26 1565.2 2624.32 1565.2 2788.69 1400.83"/><polygon class="cls-2" points="2788.69 1418.88 2788.69 1426.82 2650.31 1565.2 2642.37 1565.2 2788.69 1418.88"/><polygon class="cls-2" points="2788.69 1436.92 2788.69 1444.88 2668.37 1565.2 2660.42 1565.2 2788.69 1436.92"/><polygon class="cls-2" points="2788.69 1454.97 2788.69 1462.95 2686.44 1565.2 2678.46 1565.2 2788.69 1454.97"/><polygon class="cls-2" points="2788.69 1473.01 2788.69 1480.99 2704.49 1565.2 2696.51 1565.2 2788.69 1473.01"/><polygon class="cls-2" points="2788.69 1491.06 2788.69 1499.04 2722.53 1565.2 2714.55 1565.2 2788.69 1491.06"/><polygon class="cls-2" points="2788.69 1509.11 2788.69 1517.08 2740.58 1565.2 2732.6 1565.2 2788.69 1509.11"/><polygon class="cls-2" points="2788.69 1527.15 2788.69 1535.13 2758.62 1565.2 2750.64 1565.2 2788.69 1527.15"/><polygon class="cls-2" points="2788.69 1545.2 2788.69 1553.17 2776.67 1565.2 2768.69 1565.2 2788.69 1545.2"/><polygon class="cls-2" points="2788.69 1563.24 2788.69 1565.2 2786.74 1565.2 2788.69 1563.24"/></svg>